# MagicaVoxel @ Ephtracy

# group
o 

# material
mtllib player.mtl
usemtl palette

# normals
vn -1 0 0
vn 1 0 0
vn 0 0 1
vn 0 0 -1
vn 0 -1 0
vn 0 1 0

# texcoords
vt 0.0644531 0.5
vt 0.369141 0.5
vt 0.400391 0.5
vt 0.841797 0.5
vt 0.958984 0.5
vt 0.966797 0.5
vt 0.970703 0.5
vt 0.974609 0.5
vt 0.978516 0.5
vt 0.982422 0.5
vt 0.986328 0.5
vt 0.994141 0.5

# verts
v -0.9 1.5 -2.98023e-08
v -0.9 1.5 -0.1
v -0.9 1.6 -2.98023e-08
v -0.9 1.6 -0.1
v -0.8 1.4 -2.98023e-08
v -0.8 1.4 -0.1
v -0.8 1.5 0.1
v -0.8 1.5 -2.98023e-08
v -0.8 1.5 -0.1
v -0.8 1.5 -0.2
v -0.8 1.6 0.1
v -0.8 1.6 -2.98023e-08
v -0.8 1.6 -0.1
v -0.8 1.6 -0.2
v -0.8 1.7 -2.98023e-08
v -0.8 1.7 -0.1
v -0.7 1.2 -2.98023e-08
v -0.7 1.2 -0.1
v -0.7 1.3 -2.98023e-08
v -0.7 1.3 -0.1
v -0.6 0.2 -2.98023e-08
v -0.6 0.2 -0.1
v -0.6 0.5 -2.98023e-08
v -0.6 0.5 -0.1
v -0.6 1 -2.98023e-08
v -0.6 1 -0.1
v -0.6 1.1 -2.98023e-08
v -0.6 1.1 -0.1
v -0.5 1.3 -2.98023e-08
v -0.5 1.3 -0.1
v -0.5 1.4 -2.98023e-08
v -0.5 1.4 -0.1
v -0.5 1.5 -2.98023e-08
v -0.5 1.5 -0.1
v -0.4 0.4 -2.98023e-08
v -0.4 0.4 -0.1
v -0.4 0.5 -2.98023e-08
v -0.4 0.5 -0.1
v -0.4 0.8 0.1
v -0.4 0.8 -0.2
v -0.4 0.9 0.2
v -0.4 0.9 0.1
v -0.4 0.9 -2.98023e-08
v -0.4 0.9 -0.1
v -0.4 0.9 -0.2
v -0.4 0.9 -0.3
v -0.4 1 0.1
v -0.4 1 -2.98023e-08
v -0.4 1 -0.1
v -0.4 1 -0.2
v -0.4 1.1 0.1
v -0.4 1.1 -2.98023e-08
v -0.4 1.1 -0.1
v -0.4 1.1 -0.2
v -0.4 1.2 0.2
v -0.4 1.2 0.1
v -0.4 1.2 -2.98023e-08
v -0.4 1.2 -0.1
v -0.4 1.2 -0.2
v -0.4 1.2 -0.3
v -0.4 1.3 0.1
v -0.4 1.3 -2.98023e-08
v -0.4 1.3 -0.1
v -0.4 1.3 -0.2
v -0.3 0.3 0.2
v -0.3 0.3 0.1
v -0.3 0.3 -2.98023e-08
v -0.3 0.3 -0.1
v -0.3 0.3 -0.2
v -0.3 0.3 -0.3
v -0.3 0.4 0.2
v -0.3 0.4 0.1
v -0.3 0.4 -2.98023e-08
v -0.3 0.4 -0.1
v -0.3 0.4 -0.2
v -0.3 0.4 -0.3
v -0.3 0.5 0.1
v -0.3 0.5 -2.98023e-08
v -0.3 0.5 -0.1
v -0.3 0.6 -2.98023e-08
v -0.3 0.6 -0.1
v -0.3 0.6 -0.2
v -0.3 0.7 0.2
v -0.3 0.7 0.1
v -0.3 0.7 -2.98023e-08
v -0.3 0.7 -0.1
v -0.3 0.7 -0.2
v -0.3 0.7 -0.3
v -0.3 0.8 0.1
v -0.3 0.8 -2.98023e-08
v -0.3 0.8 -0.2
v -0.3 0.8 -0.3
v -0.3 0.9 0.2
v -0.3 0.9 0.1
v -0.3 0.9 -2.98023e-08
v -0.3 0.9 -0.1
v -0.3 0.9 -0.2
v -0.3 0.9 -0.3
v -0.3 0.9 -0.4
v -0.3 1 0.3
v -0.3 1 0.2
v -0.3 1 0.1
v -0.3 1 -2.98023e-08
v -0.3 1 -0.1
v -0.3 1 -0.2
v -0.3 1.1 0.1
v -0.3 1.1 -2.98023e-08
v -0.3 1.1 -0.1
v -0.3 1.1 -0.2
v -0.3 1.2 0.3
v -0.3 1.2 0.2
v -0.3 1.2 0.1
v -0.3 1.2 -2.98023e-08
v -0.3 1.2 -0.1
v -0.3 1.2 -0.2
v -0.3 1.2 -0.3
v -0.3 1.2 -0.4
v -0.3 1.3 0.2
v -0.3 1.3 0.1
v -0.3 1.3 -0.2
v -0.3 1.3 -0.3
v -0.2 0 -2.98023e-08
v -0.2 0 -0.1
v -0.2 0.2 -2.98023e-08
v -0.2 0.2 -0.1
v -0.2 0.3 -2.98023e-08
v -0.2 0.3 -0.1
v -0.2 0.4 0.1
v -0.2 0.4 -2.98023e-08
v -0.2 0.4 -0.1
v -0.2 0.4 -0.2
v -0.2 0.5 0.1
v -0.2 0.5 -2.98023e-08
v -0.2 0.5 -0.1
v -0.2 0.6 0.2
v -0.2 0.6 0.1
v -0.2 0.6 -0.1
v -0.2 0.6 -0.2
v -0.2 0.6 -0.3
v -0.2 0.7 0.2
v -0.2 0.7 0.1
v -0.2 0.7 -2.98023e-08
v -0.2 0.7 -0.2
v -0.2 0.7 -0.3
v -0.2 0.7 -0.4
v -0.2 0.8 0.1
v -0.2 0.8 -2.98023e-08
v -0.2 0.8 -0.3
v -0.2 0.8 -0.4
v -0.2 0.8 -0.5
v -0.2 0.9 -0.3
v -0.2 0.9 -0.4
v -0.2 1.1 -0.4
v -0.2 1.1 -0.5
v -0.2 1.3 0.1
v -0.2 1.3 -0.2
v -0.2 1.4 0.1
v -0.2 1.4 -0.2
v -0.1 0.6 -0.3
v -0.1 0.6 -0.4
v -0.1 0.7 -0.3
v -0.1 0.7 -0.4
v -0.1 0.9 0.2
v -0.1 0.9 0.1
v -0.1 1 0.2
v -0.1 1 0.1
v 0.1 0 -2.98023e-08
v 0.1 0 -0.1
v 0.1 0.2 -2.98023e-08
v 0.1 0.2 -0.1
v 0.1 0.3 -2.98023e-08
v 0.1 0.3 -0.1
v 0.1 0.5 -0.2
v 0.1 0.5 -0.3
v 0.1 0.6 0.2
v 0.1 0.6 0.1
v 0.1 0.6 -0.2
v 0.1 0.6 -0.3
v 0.1 0.7 0.2
v 0.1 0.7 0.1
v 0.1 0.7 -0.3
v 0.1 0.7 -0.4
v 0.1 0.8 -0.3
v 0.1 0.8 -0.4
v 0.1 0.8 -0.5
v 0.1 0.9 -0.3
v 0.1 0.9 -0.5
v 0.2 0.7 0.2
v 0.2 0.7 0.1
v 0.2 0.8 0.1
v 0.2 0.9 0.1
v 0.2 1 0.2
v 0.2 1 0.1
v 0.3 0.5 -2.98023e-08
v 0.3 0.5 -0.1
v 0.3 0.6 -2.98023e-08
v 0.3 0.6 -0.1
v 0.3 1.3 -2.98023e-08
v 0.3 1.3 -0.1
v 0.3 1.4 -2.98023e-08
v 0.3 1.4 -0.1
v 0.4 0.4 -2.98023e-08
v 0.4 0.4 -0.1
v 0.4 0.5 -2.98023e-08
v 0.4 0.5 -0.1
v 0.4 1.4 -2.98023e-08
v 0.4 1.4 -0.1
v 0.4 1.5 -2.98023e-08
v 0.4 1.5 -0.1
v -0.6 1.2 -2.98023e-08
v -0.6 1.2 -0.1
v -0.6 1.3 -2.98023e-08
v -0.6 1.3 -0.1
v -0.6 1.4 -2.98023e-08
v -0.6 1.4 -0.1
v -0.6 1.5 0.1
v -0.6 1.5 -2.98023e-08
v -0.6 1.5 -0.1
v -0.6 1.5 -0.2
v -0.6 1.6 0.1
v -0.6 1.6 -2.98023e-08
v -0.6 1.6 -0.1
v -0.6 1.6 -0.2
v -0.6 1.7 -2.98023e-08
v -0.6 1.7 -0.1
v -0.5 0.2 -2.98023e-08
v -0.5 0.2 -0.1
v -0.5 0.3 -2.98023e-08
v -0.5 0.3 -0.1
v -0.5 0.4 -2.98023e-08
v -0.5 0.4 -0.1
v -0.5 0.5 -2.98023e-08
v -0.5 0.5 -0.1
v -0.5 1 -2.98023e-08
v -0.5 1 -0.1
v -0.5 1.1 -2.98023e-08
v -0.5 1.1 -0.1
v -0.5 1.5 -2.98023e-08
v -0.5 1.5 -0.1
v -0.5 1.6 -2.98023e-08
v -0.5 1.6 -0.1
v -0.4 0.3 -2.98023e-08
v -0.4 0.3 -0.1
v -0.4 0.4 -2.98023e-08
v -0.4 0.4 -0.1
v -0.4 1.4 -2.98023e-08
v -0.4 1.4 -0.1
v -0.4 1.5 -2.98023e-08
v -0.4 1.5 -0.1
v -0.3 0.4 -2.98023e-08
v -0.3 0.4 -0.1
v -0.3 0.5 -2.98023e-08
v -0.3 0.5 -0.1
v -0.3 1.3 -2.98023e-08
v -0.3 1.3 -0.1
v -0.3 1.4 -2.98023e-08
v -0.3 1.4 -0.1
v -0.2 0.7 0.2
v -0.2 0.7 0.1
v -0.2 0.8 0.1
v -0.2 0.9 0.1
v -0.2 1 0.2
v -0.2 1 0.1
v -0.1 0 -2.98023e-08
v -0.1 0 -0.1
v -0.1 0.2 -2.98023e-08
v -0.1 0.2 -0.1
v -0.1 0.3 -2.98023e-08
v -0.1 0.3 -0.1
v -0.1 0.6 0.2
v -0.1 0.6 0.1
v -0.1 0.7 0.2
v -0.1 0.7 0.1
v -0.1 0.7 -0.3
v -0.1 0.7 -0.4
v -0.1 0.8 -0.3
v -0.1 0.8 -0.4
v -0.1 0.8 -0.5
v -0.1 0.9 -0.3
v -0.1 0.9 -0.5
v 0 0.9 0.2
v 0 0.9 0.1
v 0 1 0.2
v 0 1 0.1
v 0.1 0.6 -0.3
v 0.1 0.6 -0.4
v 0.1 0.7 -0.3
v 0.1 0.7 -0.4
v 0.2 0 -2.98023e-08
v 0.2 0 -0.1
v 0.2 0.2 -2.98023e-08
v 0.2 0.2 -0.1
v 0.2 0.3 -2.98023e-08
v 0.2 0.3 -0.1
v 0.2 0.4 0.1
v 0.2 0.4 -2.98023e-08
v 0.2 0.4 -0.1
v 0.2 0.4 -0.2
v 0.2 0.5 0.1
v 0.2 0.5 -2.98023e-08
v 0.2 0.5 -0.1
v 0.2 0.5 -0.2
v 0.2 0.5 -0.3
v 0.2 0.6 0.2
v 0.2 0.6 0.1
v 0.2 0.6 -2.98023e-08
v 0.2 0.6 -0.1
v 0.2 0.6 -0.3
v 0.2 0.7 0.2
v 0.2 0.7 0.1
v 0.2 0.7 -2.98023e-08
v 0.2 0.7 -0.3
v 0.2 0.7 -0.4
v 0.2 0.8 0.1
v 0.2 0.8 -2.98023e-08
v 0.2 0.8 -0.3
v 0.2 0.8 -0.4
v 0.2 0.8 -0.5
v 0.2 0.9 -0.3
v 0.2 0.9 -0.4
v 0.2 1.1 -0.4
v 0.2 1.1 -0.5
v 0.2 1.3 0.1
v 0.2 1.3 -0.1
v 0.2 1.3 -0.2
v 0.2 1.4 0.1
v 0.2 1.4 -0.2
v 0.3 0.3 0.2
v 0.3 0.3 0.1
v 0.3 0.3 -2.98023e-08
v 0.3 0.3 -0.1
v 0.3 0.3 -0.2
v 0.3 0.3 -0.3
v 0.3 0.4 0.2
v 0.3 0.4 0.1
v 0.3 0.4 -2.98023e-08
v 0.3 0.4 -0.1
v 0.3 0.4 -0.2
v 0.3 0.4 -0.3
v 0.3 0.5 0.1
v 0.3 0.5 -2.98023e-08
v 0.3 0.6 -2.98023e-08
v 0.3 0.6 -0.1
v 0.3 0.6 -0.3
v 0.3 0.7 0.2
v 0.3 0.7 0.1
v 0.3 0.7 -2.98023e-08
v 0.3 0.7 -0.1
v 0.3 0.7 -0.2
v 0.3 0.8 0.1
v 0.3 0.8 -2.98023e-08
v 0.3 0.8 -0.1
v 0.3 0.8 -0.2
v 0.3 0.8 -0.3
v 0.3 0.9 0.2
v 0.3 0.9 0.1
v 0.3 0.9 -2.98023e-08
v 0.3 0.9 -0.1
v 0.3 0.9 -0.2
v 0.3 0.9 -0.3
v 0.3 0.9 -0.4
v 0.3 1 0.3
v 0.3 1 0.2
v 0.3 1 0.1
v 0.3 1 -2.98023e-08
v 0.3 1 -0.1
v 0.3 1 -0.2
v 0.3 1.1 0.3
v 0.3 1.1 0.2
v 0.3 1.1 0.1
v 0.3 1.1 -2.98023e-08
v 0.3 1.1 -0.1
v 0.3 1.1 -0.2
v 0.3 1.2 0.3
v 0.3 1.2 0.2
v 0.3 1.2 0.1
v 0.3 1.2 -2.98023e-08
v 0.3 1.2 -0.1
v 0.3 1.2 -0.2
v 0.3 1.2 -0.3
v 0.3 1.2 -0.4
v 0.3 1.3 0.2
v 0.3 1.3 0.1
v 0.3 1.3 -0.2
v 0.3 1.3 -0.3
v 0.4 0.3 -2.98023e-08
v 0.4 0.3 -0.1
v 0.4 0.4 -2.98023e-08
v 0.4 0.4 -0.1
v 0.4 0.5 -2.98023e-08
v 0.4 0.5 -0.1
v 0.4 0.6 -2.98023e-08
v 0.4 0.6 -0.1
v 0.4 0.7 -0.1
v 0.4 0.7 -0.2
v 0.4 0.8 0.1
v 0.4 0.8 -0.1
v 0.4 0.8 -0.2
v 0.4 0.9 0.2
v 0.4 0.9 0.1
v 0.4 0.9 -2.98023e-08
v 0.4 0.9 -0.1
v 0.4 0.9 -0.2
v 0.4 0.9 -0.3
v 0.4 1 0.1
v 0.4 1 -2.98023e-08
v 0.4 1 -0.1
v 0.4 1 -0.2
v 0.4 1.1 0.1
v 0.4 1.1 -2.98023e-08
v 0.4 1.1 -0.1
v 0.4 1.1 -0.2
v 0.4 1.2 0.2
v 0.4 1.2 0.1
v 0.4 1.2 -2.98023e-08
v 0.4 1.2 -0.1
v 0.4 1.2 -0.2
v 0.4 1.2 -0.3
v 0.4 1.3 0.1
v 0.4 1.3 -2.98023e-08
v 0.4 1.3 -0.1
v 0.4 1.3 -0.2
v 0.5 0.4 -2.98023e-08
v 0.5 0.4 -0.1
v 0.5 0.5 -2.98023e-08
v 0.5 0.5 -0.1
v 0.5 1.3 -2.98023e-08
v 0.5 1.3 -0.1
v 0.5 1.4 -2.98023e-08
v 0.5 1.4 -0.1
v 0.5 1.5 -2.98023e-08
v 0.5 1.5 -0.1
v -0.3 1 0.3
v -0.3 1.2 0.3
v 0 1 0.3
v 0 1.2 0.3
v 0.2 1.1 0.3
v 0.2 1.2 0.3
v 0.3 1 0.3
v 0.3 1.1 0.3
v 0.3 1.2 0.3
v -0.4 0.9 0.2
v -0.4 1.2 0.2
v -0.3 0.3 0.2
v -0.3 0.4 0.2
v -0.3 0.7 0.2
v -0.3 0.9 0.2
v -0.3 1 0.2
v -0.3 1.2 0.2
v -0.3 1.3 0.2
v -0.2 0.3 0.2
v -0.2 0.4 0.2
v -0.2 0.6 0.2
v -0.2 0.7 0.2
v -0.2 1 0.2
v -0.2 1.2 0.2
v -0.2 1.3 0.2
v -0.1 0.3 0.2
v -0.1 0.4 0.2
v -0.1 0.6 0.2
v -0.1 0.7 0.2
v -0.1 0.9 0.2
v -0.1 1 0.2
v 0 0.3 0.2
v 0 0.4 0.2
v 0 0.9 0.2
v 0 1 0.2
v 0 1.2 0.2
v 0.1 0.3 0.2
v 0.1 0.4 0.2
v 0.1 0.6 0.2
v 0.1 0.7 0.2
v 0.2 0.3 0.2
v 0.2 0.4 0.2
v 0.2 0.6 0.2
v 0.2 0.7 0.2
v 0.2 1 0.2
v 0.2 1.2 0.2
v 0.3 0.3 0.2
v 0.3 0.4 0.2
v 0.3 0.7 0.2
v 0.3 0.9 0.2
v 0.3 1 0.2
v 0.3 1.1 0.2
v 0.3 1.2 0.2
v 0.3 1.3 0.2
v 0.4 0.9 0.2
v 0.4 1.2 0.2
v -0.8 1.5 0.1
v -0.8 1.6 0.1
v -0.6 1.5 0.1
v -0.6 1.6 0.1
v -0.4 0.8 0.1
v -0.4 0.9 0.1
v -0.4 1.2 0.1
v -0.4 1.3 0.1
v -0.3 0.5 0.1
v -0.3 0.7 0.1
v -0.3 0.8 0.1
v -0.3 0.9 0.1
v -0.3 1.2 0.1
v -0.3 1.3 0.1
v -0.2 0.4 0.1
v -0.2 0.5 0.1
v -0.2 0.6 0.1
v -0.2 0.7 0.1
v -0.2 0.8 0.1
v -0.2 0.9 0.1
v -0.2 1 0.1
v -0.2 1.3 0.1
v -0.2 1.4 0.1
v -0.1 0.4 0.1
v -0.1 0.6 0.1
v -0.1 0.7 0.1
v -0.1 0.8 0.1
v -0.1 0.9 0.1
v -0.1 1 0.1
v -0.1 1.3 0.1
v -0.1 1.4 0.1
v 0 0.4 0.1
v 0 0.6 0.1
v 0 0.7 0.1
v 0 0.8 0.1
v 0 0.9 0.1
v 0 1 0.1
v 0.1 0.4 0.1
v 0.1 0.5 0.1
v 0.1 0.6 0.1
v 0.1 0.7 0.1
v 0.1 0.8 0.1
v 0.1 0.9 0.1
v 0.2 0.4 0.1
v 0.2 0.5 0.1
v 0.2 0.6 0.1
v 0.2 0.7 0.1
v 0.2 0.8 0.1
v 0.2 0.9 0.1
v 0.2 1 0.1
v 0.2 1.3 0.1
v 0.2 1.4 0.1
v 0.3 0.5 0.1
v 0.3 0.7 0.1
v 0.3 0.8 0.1
v 0.3 0.9 0.1
v 0.3 1.2 0.1
v 0.3 1.3 0.1
v 0.4 0.8 0.1
v 0.4 0.9 0.1
v 0.4 1.2 0.1
v 0.4 1.3 0.1
v -0.9 1.5 -2.98023e-08
v -0.9 1.6 -2.98023e-08
v -0.8 1.4 -2.98023e-08
v -0.8 1.5 -2.98023e-08
v -0.8 1.6 -2.98023e-08
v -0.8 1.7 -2.98023e-08
v -0.7 1.2 -2.98023e-08
v -0.7 1.3 -2.98023e-08
v -0.6 0.2 -2.98023e-08
v -0.6 0.5 -2.98023e-08
v -0.6 1 -2.98023e-08
v -0.6 1.1 -2.98023e-08
v -0.6 1.2 -2.98023e-08
v -0.6 1.3 -2.98023e-08
v -0.6 1.4 -2.98023e-08
v -0.6 1.5 -2.98023e-08
v -0.6 1.6 -2.98023e-08
v -0.6 1.7 -2.98023e-08
v -0.5 0.2 -2.98023e-08
v -0.5 0.3 -2.98023e-08
v -0.5 0.4 -2.98023e-08
v -0.5 0.5 -2.98023e-08
v -0.5 1 -2.98023e-08
v -0.5 1.1 -2.98023e-08
v -0.5 1.3 -2.98023e-08
v -0.5 1.4 -2.98023e-08
v -0.5 1.5 -2.98023e-08
v -0.5 1.6 -2.98023e-08
v -0.4 0.3 -2.98023e-08
v -0.4 0.4 -2.98023e-08
v -0.4 0.5 -2.98023e-08
v -0.4 0.9 -2.98023e-08
v -0.4 1 -2.98023e-08
v -0.4 1.1 -2.98023e-08
v -0.4 1.2 -2.98023e-08
v -0.4 1.3 -2.98023e-08
v -0.4 1.4 -2.98023e-08
v -0.4 1.5 -2.98023e-08
v -0.3 0.4 -2.98023e-08
v -0.3 0.5 -2.98023e-08
v -0.3 0.7 -2.98023e-08
v -0.3 0.8 -2.98023e-08
v -0.3 0.9 -2.98023e-08
v -0.3 1 -2.98023e-08
v -0.3 1.1 -2.98023e-08
v -0.3 1.2 -2.98023e-08
v -0.3 1.3 -2.98023e-08
v -0.3 1.4 -2.98023e-08
v -0.2 0 -2.98023e-08
v -0.2 0.2 -2.98023e-08
v -0.2 0.3 -2.98023e-08
v -0.2 0.7 -2.98023e-08
v -0.2 0.8 -2.98023e-08
v -0.1 0 -2.98023e-08
v -0.1 0.2 -2.98023e-08
v -0.1 0.3 -2.98023e-08
v 0.1 0 -2.98023e-08
v 0.1 0.2 -2.98023e-08
v 0.1 0.3 -2.98023e-08
v 0.2 0 -2.98023e-08
v 0.2 0.2 -2.98023e-08
v 0.2 0.3 -2.98023e-08
v 0.2 0.7 -2.98023e-08
v 0.2 0.8 -2.98023e-08
v 0.3 0.3 -2.98023e-08
v 0.3 0.4 -2.98023e-08
v 0.3 0.5 -2.98023e-08
v 0.3 0.6 -2.98023e-08
v 0.3 0.7 -2.98023e-08
v 0.3 0.8 -2.98023e-08
v 0.3 0.9 -2.98023e-08
v 0.3 1 -2.98023e-08
v 0.3 1.1 -2.98023e-08
v 0.3 1.2 -2.98023e-08
v 0.3 1.3 -2.98023e-08
v 0.3 1.4 -2.98023e-08
v 0.4 0.3 -2.98023e-08
v 0.4 0.4 -2.98023e-08
v 0.4 0.5 -2.98023e-08
v 0.4 0.6 -2.98023e-08
v 0.4 0.9 -2.98023e-08
v 0.4 1 -2.98023e-08
v 0.4 1.1 -2.98023e-08
v 0.4 1.2 -2.98023e-08
v 0.4 1.3 -2.98023e-08
v 0.4 1.4 -2.98023e-08
v 0.4 1.5 -2.98023e-08
v 0.5 0.4 -2.98023e-08
v 0.5 0.5 -2.98023e-08
v 0.5 1.3 -2.98023e-08
v 0.5 1.4 -2.98023e-08
v 0.5 1.5 -2.98023e-08
v -0.4 1 -0.1
v -0.4 1.1 -0.1
v -0.3 1 -0.1
v -0.3 1.1 -0.1
v 0.3 0.7 -0.1
v 0.3 0.8 -0.1
v 0.3 1 -0.1
v 0.3 1.1 -0.1
v 0.4 0.7 -0.1
v 0.4 0.8 -0.1
v 0.4 1 -0.1
v 0.4 1.1 -0.1
v -0.4 0.9 -0.2
v -0.4 1 -0.2
v -0.4 1.1 -0.2
v -0.4 1.2 -0.2
v -0.3 0.9 -0.2
v -0.3 1 -0.2
v -0.3 1.1 -0.2
v -0.3 1.2 -0.2
v 0.3 0.9 -0.2
v 0.3 1 -0.2
v 0.3 1.1 -0.2
v 0.3 1.2 -0.2
v 0.4 0.9 -0.2
v 0.4 1 -0.2
v 0.4 1.1 -0.2
v 0.4 1.2 -0.2
v -0.4 0.9 0.1
v -0.4 1 0.1
v -0.4 1.1 0.1
v -0.4 1.2 0.1
v -0.3 0.7 0.1
v -0.3 0.8 0.1
v -0.3 0.9 0.1
v -0.3 1 0.1
v -0.3 1.1 0.1
v -0.3 1.2 0.1
v -0.2 0.7 0.1
v -0.2 0.8 0.1
v 0.2 0.7 0.1
v 0.2 0.8 0.1
v 0.3 0.7 0.1
v 0.3 0.8 0.1
v 0.3 0.9 0.1
v 0.3 1 0.1
v 0.3 1.1 0.1
v 0.3 1.2 0.1
v 0.4 0.9 0.1
v 0.4 1 0.1
v 0.4 1.1 0.1
v 0.4 1.2 0.1
v -0.4 1 -2.98023e-08
v -0.4 1.1 -2.98023e-08
v -0.3 1 -2.98023e-08
v -0.3 1.1 -2.98023e-08
v 0.2 0.5 -2.98023e-08
v 0.2 0.6 -2.98023e-08
v 0.3 0.5 -2.98023e-08
v 0.3 0.6 -2.98023e-08
v 0.3 1 -2.98023e-08
v 0.3 1.1 -2.98023e-08
v 0.4 1 -2.98023e-08
v 0.4 1.1 -2.98023e-08
v -0.9 1.5 -0.1
v -0.9 1.6 -0.1
v -0.8 1.4 -0.1
v -0.8 1.5 -0.1
v -0.8 1.6 -0.1
v -0.8 1.7 -0.1
v -0.7 1.2 -0.1
v -0.7 1.3 -0.1
v -0.6 0.2 -0.1
v -0.6 0.5 -0.1
v -0.6 1 -0.1
v -0.6 1.1 -0.1
v -0.6 1.2 -0.1
v -0.6 1.3 -0.1
v -0.6 1.4 -0.1
v -0.6 1.5 -0.1
v -0.6 1.6 -0.1
v -0.6 1.7 -0.1
v -0.5 0.2 -0.1
v -0.5 0.3 -0.1
v -0.5 0.4 -0.1
v -0.5 0.5 -0.1
v -0.5 1 -0.1
v -0.5 1.1 -0.1
v -0.5 1.3 -0.1
v -0.5 1.4 -0.1
v -0.5 1.5 -0.1
v -0.5 1.6 -0.1
v -0.4 0.3 -0.1
v -0.4 0.4 -0.1
v -0.4 0.5 -0.1
v -0.4 0.9 -0.1
v -0.4 1 -0.1
v -0.4 1.1 -0.1
v -0.4 1.2 -0.1
v -0.4 1.3 -0.1
v -0.4 1.4 -0.1
v -0.4 1.5 -0.1
v -0.3 0.4 -0.1
v -0.3 0.5 -0.1
v -0.3 0.6 -0.1
v -0.3 0.9 -0.1
v -0.3 1 -0.1
v -0.3 1.1 -0.1
v -0.3 1.2 -0.1
v -0.3 1.3 -0.1
v -0.3 1.4 -0.1
v -0.2 0 -0.1
v -0.2 0.2 -0.1
v -0.2 0.3 -0.1
v -0.2 0.5 -0.1
v -0.2 0.6 -0.1
v -0.1 0 -0.1
v -0.1 0.2 -0.1
v -0.1 0.3 -0.1
v 0.1 0 -0.1
v 0.1 0.2 -0.1
v 0.1 0.3 -0.1
v 0.2 0 -0.1
v 0.2 0.2 -0.1
v 0.2 0.3 -0.1
v 0.3 0.3 -0.1
v 0.3 0.4 -0.1
v 0.3 0.5 -0.1
v 0.3 0.6 -0.1
v 0.3 0.9 -0.1
v 0.3 1 -0.1
v 0.3 1.1 -0.1
v 0.3 1.2 -0.1
v 0.3 1.3 -0.1
v 0.3 1.4 -0.1
v 0.4 0.3 -0.1
v 0.4 0.4 -0.1
v 0.4 0.5 -0.1
v 0.4 0.6 -0.1
v 0.4 0.9 -0.1
v 0.4 1 -0.1
v 0.4 1.1 -0.1
v 0.4 1.2 -0.1
v 0.4 1.3 -0.1
v 0.4 1.4 -0.1
v 0.4 1.5 -0.1
v 0.5 0.4 -0.1
v 0.5 0.5 -0.1
v 0.5 1.3 -0.1
v 0.5 1.4 -0.1
v 0.5 1.5 -0.1
v -0.8 1.5 -0.2
v -0.8 1.6 -0.2
v -0.6 1.5 -0.2
v -0.6 1.6 -0.2
v -0.4 0.8 -0.2
v -0.4 0.9 -0.2
v -0.4 1.2 -0.2
v -0.4 1.3 -0.2
v -0.3 0.6 -0.2
v -0.3 0.7 -0.2
v -0.3 0.8 -0.2
v -0.3 0.9 -0.2
v -0.3 1.2 -0.2
v -0.3 1.3 -0.2
v -0.2 0.4 -0.2
v -0.2 0.6 -0.2
v -0.2 0.7 -0.2
v -0.2 1.3 -0.2
v -0.2 1.4 -0.2
v -0.1 0.4 -0.2
v -0.1 0.6 -0.2
v -0.1 1.3 -0.2
v -0.1 1.4 -0.2
v 0 0.4 -0.2
v 0 0.6 -0.2
v 0.1 0.4 -0.2
v 0.1 0.5 -0.2
v 0.1 0.6 -0.2
v 0.2 0.4 -0.2
v 0.2 0.5 -0.2
v 0.2 1.3 -0.2
v 0.2 1.4 -0.2
v 0.3 0.7 -0.2
v 0.3 0.8 -0.2
v 0.3 0.9 -0.2
v 0.3 1.2 -0.2
v 0.3 1.3 -0.2
v 0.4 0.7 -0.2
v 0.4 0.8 -0.2
v 0.4 0.9 -0.2
v 0.4 1.2 -0.2
v 0.4 1.3 -0.2
v -0.4 0.9 -0.3
v -0.4 1.2 -0.3
v -0.3 0.3 -0.3
v -0.3 0.4 -0.3
v -0.3 0.7 -0.3
v -0.3 0.8 -0.3
v -0.3 0.9 -0.3
v -0.3 1.2 -0.3
v -0.3 1.3 -0.3
v -0.2 0.3 -0.3
v -0.2 0.4 -0.3
v -0.2 0.6 -0.3
v -0.2 0.7 -0.3
v -0.2 0.8 -0.3
v -0.2 0.9 -0.3
v -0.1 0.3 -0.3
v -0.1 0.4 -0.3
v -0.1 0.6 -0.3
v -0.1 0.7 -0.3
v -0.1 0.8 -0.3
v -0.1 0.9 -0.3
v 0 0.3 -0.3
v 0 0.4 -0.3
v 0.1 0.3 -0.3
v 0.1 0.4 -0.3
v 0.1 0.5 -0.3
v 0.1 0.6 -0.3
v 0.1 0.7 -0.3
v 0.1 0.8 -0.3
v 0.1 0.9 -0.3
v 0.2 0.3 -0.3
v 0.2 0.4 -0.3
v 0.2 0.5 -0.3
v 0.2 0.6 -0.3
v 0.2 0.7 -0.3
v 0.2 0.8 -0.3
v 0.2 0.9 -0.3
v 0.3 0.3 -0.3
v 0.3 0.4 -0.3
v 0.3 0.6 -0.3
v 0.3 0.8 -0.3
v 0.3 0.9 -0.3
v 0.3 1.2 -0.3
v 0.3 1.3 -0.3
v 0.4 0.9 -0.3
v 0.4 1.2 -0.3
v -0.3 0.9 -0.4
v -0.3 1.2 -0.4
v -0.2 0.7 -0.4
v -0.2 0.8 -0.4
v -0.2 0.9 -0.4
v -0.2 1.1 -0.4
v -0.1 0.6 -0.4
v -0.1 0.7 -0.4
v -0.1 0.8 -0.4
v 0.1 0.6 -0.4
v 0.1 0.7 -0.4
v 0.1 0.8 -0.4
v 0.2 0.7 -0.4
v 0.2 0.8 -0.4
v 0.2 0.9 -0.4
v 0.2 1.1 -0.4
v 0.3 0.9 -0.4
v 0.3 1.2 -0.4
v -0.2 0.8 -0.5
v -0.2 1.1 -0.5
v -0.1 0.8 -0.5
v -0.1 0.9 -0.5
v 0.1 0.8 -0.5
v 0.1 0.9 -0.5
v 0.2 0.8 -0.5
v 0.2 1.1 -0.5
v -0.2 0 -2.98023e-08
v -0.1 0 -2.98023e-08
v 0.1 0 -2.98023e-08
v 0.2 0 -2.98023e-08
v -0.2 0 -0.1
v -0.1 0 -0.1
v 0.1 0 -0.1
v 0.2 0 -0.1
v -0.6 0.2 -2.98023e-08
v -0.5 0.2 -2.98023e-08
v -0.6 0.2 -0.1
v -0.5 0.2 -0.1
v -0.3 0.3 0.2
v -0.2 0.3 0.2
v -0.1 0.3 0.2
v 0 0.3 0.2
v 0.1 0.3 0.2
v 0.2 0.3 0.2
v 0.3 0.3 0.2
v -0.3 0.3 0.1
v -0.2 0.3 0.1
v 0.2 0.3 0.1
v 0.3 0.3 0.1
v -0.5 0.3 -2.98023e-08
v -0.4 0.3 -2.98023e-08
v -0.3 0.3 -2.98023e-08
v -0.2 0.3 -2.98023e-08
v -0.1 0.3 -2.98023e-08
v 0.1 0.3 -2.98023e-08
v 0.2 0.3 -2.98023e-08
v 0.3 0.3 -2.98023e-08
v 0.4 0.3 -2.98023e-08
v -0.5 0.3 -0.1
v -0.4 0.3 -0.1
v -0.3 0.3 -0.1
v -0.2 0.3 -0.1
v -0.1 0.3 -0.1
v 0.1 0.3 -0.1
v 0.2 0.3 -0.1
v 0.3 0.3 -0.1
v 0.4 0.3 -0.1
v -0.3 0.3 -0.2
v -0.2 0.3 -0.2
v 0.2 0.3 -0.2
v 0.3 0.3 -0.2
v -0.3 0.3 -0.3
v -0.2 0.3 -0.3
v -0.1 0.3 -0.3
v 0 0.3 -0.3
v 0.1 0.3 -0.3
v 0.2 0.3 -0.3
v 0.3 0.3 -0.3
v -0.4 0.4 -2.98023e-08
v -0.3 0.4 -2.98023e-08
v 0.4 0.4 -2.98023e-08
v 0.5 0.4 -2.98023e-08
v -0.4 0.4 -0.1
v -0.3 0.4 -0.1
v 0.4 0.4 -0.1
v 0.5 0.4 -0.1
v -0.3 0.5 0.1
v -0.2 0.5 0.1
v 0.2 0.5 0.1
v 0.3 0.5 0.1
v -0.3 0.5 -2.98023e-08
v -0.2 0.5 -2.98023e-08
v 0.2 0.5 -2.98023e-08
v 0.3 0.5 -2.98023e-08
v 0.4 0.5 -2.98023e-08
v -0.3 0.5 -0.1
v -0.2 0.5 -0.1
v 0.3 0.5 -0.1
v 0.4 0.5 -0.1
v 0.1 0.5 -0.2
v 0.2 0.5 -0.2
v 0.1 0.5 -0.3
v 0.2 0.5 -0.3
v -0.2 0.6 0.2
v -0.1 0.6 0.2
v 0.1 0.6 0.2
v 0.2 0.6 0.2
v -0.2 0.6 0.1
v -0.1 0.6 0.1
v 0.1 0.6 0.1
v 0.2 0.6 0.1
v 0.2 0.6 -2.98023e-08
v 0.3 0.6 -2.98023e-08
v -0.3 0.6 -0.1
v -0.2 0.6 -0.1
v 0.2 0.6 -0.1
v 0.3 0.6 -0.1
v -0.3 0.6 -0.2
v -0.2 0.6 -0.2
v -0.1 0.6 -0.2
v 0 0.6 -0.2
v 0.1 0.6 -0.2
v -0.2 0.6 -0.3
v -0.1 0.6 -0.3
v 0.1 0.6 -0.3
v 0.2 0.6 -0.3
v 0.3 0.6 -0.3
v -0.1 0.6 -0.4
v 0.1 0.6 -0.4
v -0.3 0.7 0.2
v -0.2 0.7 0.2
v 0.2 0.7 0.2
v 0.3 0.7 0.2
v -0.3 0.7 0.1
v -0.2 0.7 0.1
v 0.2 0.7 0.1
v 0.3 0.7 0.1
v 0.3 0.7 -0.1
v 0.4 0.7 -0.1
v -0.3 0.7 -0.2
v -0.2 0.7 -0.2
v 0.3 0.7 -0.2
v 0.4 0.7 -0.2
v -0.3 0.7 -0.3
v -0.2 0.7 -0.3
v -0.1 0.7 -0.3
v 0.1 0.7 -0.3
v 0.2 0.7 -0.3
v -0.2 0.7 -0.4
v -0.1 0.7 -0.4
v 0.1 0.7 -0.4
v 0.2 0.7 -0.4
v -0.4 0.8 0.1
v -0.3 0.8 0.1
v -0.2 0.8 0.1
v 0.2 0.8 0.1
v 0.3 0.8 0.1
v 0.4 0.8 0.1
v -0.3 0.8 -2.98023e-08
v -0.2 0.8 -2.98023e-08
v 0.2 0.8 -2.98023e-08
v 0.3 0.8 -2.98023e-08
v 0.3 0.8 -0.1
v 0.4 0.8 -0.1
v -0.4 0.8 -0.2
v -0.3 0.8 -0.2
v -0.2 0.8 -0.4
v -0.1 0.8 -0.4
v 0.1 0.8 -0.4
v 0.2 0.8 -0.4
v -0.2 0.8 -0.5
v -0.1 0.8 -0.5
v 0.1 0.8 -0.5
v 0.2 0.8 -0.5
v -0.4 0.9 0.2
v -0.3 0.9 0.2
v -0.1 0.9 0.2
v 0 0.9 0.2
v 0.3 0.9 0.2
v 0.4 0.9 0.2
v -0.4 0.9 0.1
v -0.3 0.9 0.1
v -0.1 0.9 0.1
v 0 0.9 0.1
v 0.3 0.9 0.1
v 0.4 0.9 0.1
v -0.4 0.9 -0.2
v -0.3 0.9 -0.2
v 0.3 0.9 -0.2
v 0.4 0.9 -0.2
v -0.4 0.9 -0.3
v -0.3 0.9 -0.3
v -0.2 0.9 -0.3
v -0.1 0.9 -0.3
v 0.1 0.9 -0.3
v 0.2 0.9 -0.3
v 0.3 0.9 -0.3
v 0.4 0.9 -0.3
v -0.3 0.9 -0.4
v -0.2 0.9 -0.4
v 0.2 0.9 -0.4
v 0.3 0.9 -0.4
v -0.1 0.9 -0.5
v 0.1 0.9 -0.5
v -0.3 1 0.3
v 0 1 0.3
v 0.3 1 0.3
v -0.3 1 0.2
v -0.2 1 0.2
v -0.1 1 0.2
v 0 1 0.2
v 0.2 1 0.2
v 0.3 1 0.2
v -0.4 1 0.1
v -0.3 1 0.1
v -0.2 1 0.1
v -0.1 1 0.1
v 0 1 0.1
v 0.2 1 0.1
v 0.3 1 0.1
v 0.4 1 0.1
v -0.4 1 -2.98023e-08
v -0.3 1 -2.98023e-08
v 0.3 1 -2.98023e-08
v 0.4 1 -2.98023e-08
v -0.4 1 -0.1
v -0.3 1 -0.1
v 0.3 1 -0.1
v 0.4 1 -0.1
v -0.4 1 -0.2
v -0.3 1 -0.2
v 0.3 1 -0.2
v 0.4 1 -0.2
v -0.4 1.1 -2.98023e-08
v -0.3 1.1 -2.98023e-08
v 0.3 1.1 -2.98023e-08
v 0.4 1.1 -2.98023e-08
v -0.4 1.1 -0.1
v -0.3 1.1 -0.1
v 0.3 1.1 -0.1
v 0.4 1.1 -0.1
v -0.4 1.2 0.1
v -0.3 1.2 0.1
v 0.3 1.2 0.1
v 0.4 1.2 0.1
v -0.7 1.2 -2.98023e-08
v -0.6 1.2 -2.98023e-08
v -0.4 1.2 -2.98023e-08
v -0.3 1.2 -2.98023e-08
v 0.3 1.2 -2.98023e-08
v 0.4 1.2 -2.98023e-08
v -0.7 1.2 -0.1
v -0.6 1.2 -0.1
v -0.4 1.2 -0.1
v -0.3 1.2 -0.1
v 0.3 1.2 -0.1
v 0.4 1.2 -0.1
v -0.4 1.2 -0.2
v -0.3 1.2 -0.2
v 0.3 1.2 -0.2
v 0.4 1.2 -0.2
v -0.5 1.3 -2.98023e-08
v -0.4 1.3 -2.98023e-08
v 0.4 1.3 -2.98023e-08
v 0.5 1.3 -2.98023e-08
v -0.5 1.3 -0.1
v -0.4 1.3 -0.1
v 0.4 1.3 -0.1
v 0.5 1.3 -0.1
v -0.8 1.4 -2.98023e-08
v -0.6 1.4 -2.98023e-08
v -0.8 1.4 -0.1
v -0.6 1.4 -0.1
v -0.8 1.5 0.1
v -0.6 1.5 0.1
v -0.9 1.5 -2.98023e-08
v -0.8 1.5 -2.98023e-08
v -0.6 1.5 -2.98023e-08
v -0.5 1.5 -2.98023e-08
v -0.9 1.5 -0.1
v -0.8 1.5 -0.1
v -0.6 1.5 -0.1
v -0.5 1.5 -0.1
v -0.8 1.5 -0.2
v -0.6 1.5 -0.2
v -0.3 0.4 0.2
v -0.2 0.4 0.2
v -0.1 0.4 0.2
v 0 0.4 0.2
v 0.1 0.4 0.2
v 0.2 0.4 0.2
v 0.3 0.4 0.2
v -0.3 0.4 0.1
v -0.2 0.4 0.1
v -0.1 0.4 0.1
v 0 0.4 0.1
v 0.1 0.4 0.1
v 0.2 0.4 0.1
v 0.3 0.4 0.1
v -0.5 0.4 -2.98023e-08
v -0.4 0.4 -2.98023e-08
v -0.3 0.4 -2.98023e-08
v -0.2 0.4 -2.98023e-08
v 0.2 0.4 -2.98023e-08
v 0.3 0.4 -2.98023e-08
v 0.4 0.4 -2.98023e-08
v -0.5 0.4 -0.1
v -0.4 0.4 -0.1
v -0.3 0.4 -0.1
v -0.2 0.4 -0.1
v 0.2 0.4 -0.1
v 0.3 0.4 -0.1
v 0.4 0.4 -0.1
v -0.3 0.4 -0.2
v -0.2 0.4 -0.2
v -0.1 0.4 -0.2
v 0 0.4 -0.2
v 0.1 0.4 -0.2
v 0.2 0.4 -0.2
v 0.3 0.4 -0.2
v -0.3 0.4 -0.3
v -0.2 0.4 -0.3
v -0.1 0.4 -0.3
v 0 0.4 -0.3
v 0.1 0.4 -0.3
v 0.2 0.4 -0.3
v 0.3 0.4 -0.3
v -0.4 0.5 -2.98023e-08
v -0.3 0.5 -2.98023e-08
v 0.4 0.5 -2.98023e-08
v 0.5 0.5 -2.98023e-08
v -0.4 0.5 -0.1
v -0.3 0.5 -0.1
v 0.4 0.5 -0.1
v 0.5 0.5 -0.1
v 0.3 0.6 -2.98023e-08
v 0.4 0.6 -2.98023e-08
v 0.3 0.6 -0.1
v 0.4 0.6 -0.1
v -0.2 0.7 0.2
v -0.1 0.7 0.2
v 0.1 0.7 0.2
v 0.2 0.7 0.2
v -0.3 0.7 0.1
v -0.2 0.7 0.1
v -0.1 0.7 0.1
v 0.1 0.7 0.1
v 0.2 0.7 0.1
v 0.3 0.7 0.1
v -0.3 0.7 -2.98023e-08
v -0.2 0.7 -2.98023e-08
v 0.2 0.7 -2.98023e-08
v 0.3 0.7 -2.98023e-08
v -0.1 0.7 -0.3
v 0.1 0.7 -0.3
v -0.1 0.7 -0.4
v 0.1 0.7 -0.4
v -0.4 0.9 0.1
v -0.3 0.9 0.1
v 0.3 0.9 0.1
v 0.4 0.9 0.1
v -0.4 0.9 -2.98023e-08
v -0.3 0.9 -2.98023e-08
v 0.3 0.9 -2.98023e-08
v 0.4 0.9 -2.98023e-08
v -0.4 0.9 -0.1
v -0.3 0.9 -0.1
v 0.3 0.9 -0.1
v 0.4 0.9 -0.1
v -0.4 0.9 -0.2
v -0.3 0.9 -0.2
v 0.3 0.9 -0.2
v 0.4 0.9 -0.2
v -0.4 1 -2.98023e-08
v -0.3 1 -2.98023e-08
v 0.3 1 -2.98023e-08
v 0.4 1 -2.98023e-08
v -0.4 1 -0.1
v -0.3 1 -0.1
v 0.3 1 -0.1
v 0.4 1 -0.1
v -0.4 1.1 0.1
v -0.3 1.1 0.1
v 0.3 1.1 0.1
v 0.4 1.1 0.1
v -0.6 1.1 -2.98023e-08
v -0.5 1.1 -2.98023e-08
v -0.4 1.1 -2.98023e-08
v -0.3 1.1 -2.98023e-08
v 0.3 1.1 -2.98023e-08
v 0.4 1.1 -2.98023e-08
v -0.6 1.1 -0.1
v -0.5 1.1 -0.1
v -0.4 1.1 -0.1
v -0.3 1.1 -0.1
v 0.3 1.1 -0.1
v 0.4 1.1 -0.1
v -0.4 1.1 -0.2
v -0.3 1.1 -0.2
v 0.3 1.1 -0.2
v 0.4 1.1 -0.2
v -0.2 1.1 -0.4
v 0.2 1.1 -0.4
v -0.2 1.1 -0.5
v 0.2 1.1 -0.5
v -0.3 1.2 0.3
v 0 1.2 0.3
v 0.2 1.2 0.3
v 0.3 1.2 0.3
v -0.4 1.2 0.2
v -0.3 1.2 0.2
v -0.2 1.2 0.2
v 0 1.2 0.2
v 0.2 1.2 0.2
v 0.3 1.2 0.2
v 0.4 1.2 0.2
v -0.4 1.2 0.1
v -0.3 1.2 0.1
v 0.3 1.2 0.1
v 0.4 1.2 0.1
v -0.4 1.2 -0.2
v -0.3 1.2 -0.2
v 0.3 1.2 -0.2
v 0.4 1.2 -0.2
v -0.4 1.2 -0.3
v -0.3 1.2 -0.3
v 0.3 1.2 -0.3
v 0.4 1.2 -0.3
v -0.3 1.2 -0.4
v 0.3 1.2 -0.4
v -0.3 1.3 0.2
v -0.2 1.3 0.2
v 0.3 1.3 0.2
v -0.4 1.3 0.1
v -0.3 1.3 0.1
v -0.2 1.3 0.1
v -0.1 1.3 0.1
v 0.2 1.3 0.1
v 0.3 1.3 0.1
v 0.4 1.3 0.1
v -0.7 1.3 -2.98023e-08
v -0.6 1.3 -2.98023e-08
v -0.4 1.3 -2.98023e-08
v -0.3 1.3 -2.98023e-08
v 0.3 1.3 -2.98023e-08
v 0.4 1.3 -2.98023e-08
v -0.7 1.3 -0.1
v -0.6 1.3 -0.1
v -0.4 1.3 -0.1
v -0.3 1.3 -0.1
v 0.2 1.3 -0.1
v 0.3 1.3 -0.1
v 0.4 1.3 -0.1
v -0.4 1.3 -0.2
v -0.3 1.3 -0.2
v -0.2 1.3 -0.2
v -0.1 1.3 -0.2
v 0.2 1.3 -0.2
v 0.3 1.3 -0.2
v 0.4 1.3 -0.2
v -0.3 1.3 -0.3
v 0.3 1.3 -0.3
v -0.2 1.4 0.1
v -0.1 1.4 0.1
v 0.2 1.4 0.1
v -0.4 1.4 -2.98023e-08
v -0.3 1.4 -2.98023e-08
v 0.3 1.4 -2.98023e-08
v 0.4 1.4 -2.98023e-08
v -0.4 1.4 -0.1
v -0.3 1.4 -0.1
v 0.3 1.4 -0.1
v 0.4 1.4 -0.1
v -0.2 1.4 -0.2
v -0.1 1.4 -0.2
v 0.2 1.4 -0.2
v -0.5 1.5 -2.98023e-08
v -0.4 1.5 -2.98023e-08
v 0.4 1.5 -2.98023e-08
v 0.5 1.5 -2.98023e-08
v -0.5 1.5 -0.1
v -0.4 1.5 -0.1
v 0.4 1.5 -0.1
v 0.5 1.5 -0.1
v -0.8 1.6 0.1
v -0.6 1.6 0.1
v -0.9 1.6 -2.98023e-08
v -0.8 1.6 -2.98023e-08
v -0.6 1.6 -2.98023e-08
v -0.5 1.6 -2.98023e-08
v -0.9 1.6 -0.1
v -0.8 1.6 -0.1
v -0.6 1.6 -0.1
v -0.5 1.6 -0.1
v -0.8 1.6 -0.2
v -0.6 1.6 -0.2
v -0.8 1.7 -2.98023e-08
v -0.6 1.7 -2.98023e-08
v -0.8 1.7 -0.1
v -0.6 1.7 -0.1

# faces
f 3/5/1 2/5/1 1/5/1
f 4/5/1 2/5/1 3/5/1
f 8/5/1 6/5/1 5/5/1
f 9/5/1 6/5/1 8/5/1
f 11/5/1 8/5/1 7/5/1
f 12/5/1 8/5/1 11/5/1
f 13/5/1 10/5/1 9/5/1
f 14/5/1 10/5/1 13/5/1
f 15/5/1 13/5/1 12/5/1
f 16/5/1 13/5/1 15/5/1
f 19/5/1 18/5/1 17/5/1
f 20/5/1 18/5/1 19/5/1
f 23/1/1 22/1/1 21/1/1
f 24/1/1 22/1/1 23/1/1
f 25/6/1 24/6/1 23/6/1
f 26/6/1 24/6/1 25/6/1
f 27/4/1 26/4/1 25/4/1
f 28/4/1 26/4/1 27/4/1
f 31/9/1 30/9/1 29/9/1
f 32/9/1 30/9/1 31/9/1
f 33/8/1 32/8/1 31/8/1
f 34/8/1 32/8/1 33/8/1
f 37/10/1 36/10/1 35/10/1
f 38/10/1 36/10/1 37/10/1
f 42/9/1 40/9/1 39/9/1
f 43/9/1 40/9/1 42/9/1
f 44/9/1 40/9/1 43/9/1
f 45/9/1 40/9/1 44/9/1
f 47/9/1 42/9/1 41/9/1
f 48/9/1 44/9/1 43/9/1
f 49/9/1 44/9/1 48/9/1
f 50/9/1 46/9/1 45/9/1
f 51/9/1 47/9/1 41/9/1
f 51/9/1 48/9/1 47/9/1
f 52/9/1 48/9/1 51/9/1
f 53/9/1 50/9/1 49/9/1
f 54/9/1 46/9/1 50/9/1
f 54/9/1 50/9/1 53/9/1
f 55/9/1 51/9/1 41/9/1
f 56/9/1 51/9/1 55/9/1
f 57/9/1 53/9/1 52/9/1
f 58/9/1 53/9/1 57/9/1
f 59/9/1 46/9/1 54/9/1
f 60/9/1 46/9/1 59/9/1
f 61/9/1 58/9/1 57/9/1
f 61/9/1 59/9/1 58/9/1
f 61/9/1 57/9/1 56/9/1
f 62/9/1 59/9/1 61/9/1
f 63/9/1 59/9/1 62/9/1
f 64/9/1 59/9/1 63/9/1
f 71/3/1 66/3/1 65/3/1
f 72/10/1 67/10/1 66/10/1
f 72/3/1 66/3/1 71/3/1
f 73/3/1 68/3/1 67/3/1
f 73/10/1 67/10/1 72/10/1
f 74/10/1 69/10/1 68/10/1
f 74/3/1 68/3/1 73/3/1
f 75/3/1 70/3/1 69/3/1
f 75/10/1 69/10/1 74/10/1
f 76/3/1 70/3/1 75/3/1
f 80/5/1 78/5/1 77/5/1
f 80/12/1 79/12/1 78/12/1
f 81/12/1 79/12/1 80/12/1
f 84/5/1 80/5/1 77/5/1
f 85/3/1 81/3/1 80/3/1
f 85/5/1 80/5/1 84/5/1
f 86/5/1 82/5/1 81/5/1
f 86/3/1 81/3/1 85/3/1
f 87/5/1 82/5/1 86/5/1
f 89/5/1 84/5/1 83/5/1
f 90/5/1 88/5/1 87/5/1
f 90/5/1 87/5/1 86/5/1
f 90/5/1 86/5/1 85/5/1
f 91/5/1 88/5/1 90/5/1
f 92/5/1 88/5/1 91/5/1
f 93/5/1 89/5/1 83/5/1
f 94/5/1 89/5/1 93/5/1
f 97/8/1 92/8/1 91/8/1
f 98/8/1 92/8/1 97/8/1
f 102/10/1 95/10/1 94/10/1
f 103/10/1 95/10/1 102/10/1
f 104/5/1 97/5/1 96/5/1
f 105/5/1 97/5/1 104/5/1
f 107/8/1 104/8/1 103/8/1
f 108/8/1 104/8/1 107/8/1
f 110/7/1 101/7/1 100/7/1
f 111/7/1 101/7/1 110/7/1
f 112/8/1 107/8/1 106/8/1
f 113/8/1 107/8/1 112/8/1
f 114/9/1 109/9/1 108/9/1
f 115/9/1 109/9/1 114/9/1
f 116/9/1 99/9/1 98/9/1
f 117/9/1 99/9/1 116/9/1
f 118/9/1 112/9/1 111/9/1
f 119/9/1 112/9/1 118/9/1
f 120/9/1 116/9/1 115/9/1
f 121/9/1 116/9/1 120/9/1
f 124/2/1 123/2/1 122/2/1
f 125/2/1 123/2/1 124/2/1
f 126/12/1 125/12/1 124/12/1
f 127/12/1 125/12/1 126/12/1
f 132/10/1 129/10/1 128/10/1
f 133/3/1 130/3/1 129/3/1
f 133/10/1 129/10/1 132/10/1
f 134/10/1 131/10/1 130/10/1
f 134/3/1 130/3/1 133/3/1
f 137/10/1 131/10/1 134/10/1
f 138/10/1 131/10/1 137/10/1
f 140/5/1 136/5/1 135/5/1
f 141/5/1 136/5/1 140/5/1
f 143/5/1 139/5/1 138/5/1
f 144/5/1 139/5/1 143/5/1
f 146/11/1 142/11/1 141/11/1
f 147/11/1 142/11/1 146/11/1
f 148/5/1 145/5/1 144/5/1
f 149/5/1 145/5/1 148/5/1
f 151/9/1 150/9/1 149/9/1
f 151/9/1 149/9/1 148/9/1
f 152/9/1 150/9/1 151/9/1
f 153/9/1 150/9/1 152/9/1
f 154/9/1 150/9/1 153/9/1
f 157/9/1 156/9/1 155/9/1
f 158/9/1 156/9/1 157/9/1
f 161/5/1 160/5/1 159/5/1
f 162/5/1 160/5/1 161/5/1
f 165/5/1 164/5/1 163/5/1
f 166/5/1 164/5/1 165/5/1
f 169/2/1 168/2/1 167/2/1
f 170/2/1 168/2/1 169/2/1
f 171/12/1 170/12/1 169/12/1
f 172/12/1 170/12/1 171/12/1
f 177/10/1 174/10/1 173/10/1
f 178/10/1 174/10/1 177/10/1
f 179/5/1 176/5/1 175/5/1
f 180/5/1 176/5/1 179/5/1
f 183/5/1 182/5/1 181/5/1
f 184/5/1 182/5/1 183/5/1
f 186/9/1 184/9/1 183/9/1
f 186/9/1 185/9/1 184/9/1
f 187/9/1 185/9/1 186/9/1
f 190/5/1 189/5/1 188/5/1
f 191/5/1 190/5/1 188/5/1
f 192/5/1 191/5/1 188/5/1
f 193/5/1 191/5/1 192/5/1
f 196/12/1 195/12/1 194/12/1
f 197/12/1 195/12/1 196/12/1
f 200/8/1 199/8/1 198/8/1
f 201/8/1 199/8/1 200/8/1
f 204/12/1 203/12/1 202/12/1
f 205/12/1 203/12/1 204/12/1
f 208/7/1 207/7/1 206/7/1
f 209/7/1 207/7/1 208/7/1
f 210/5/2 211/5/2 212/5/2
f 212/5/2 211/5/2 213/5/2
f 214/5/2 215/5/2 217/5/2
f 217/5/2 215/5/2 218/5/2
f 216/5/2 217/5/2 220/5/2
f 220/5/2 217/5/2 221/5/2
f 218/5/2 219/5/2 222/5/2
f 222/5/2 219/5/2 223/5/2
f 221/5/2 222/5/2 224/5/2
f 224/5/2 222/5/2 225/5/2
f 226/1/2 227/1/2 228/1/2
f 228/1/2 227/1/2 229/1/2
f 230/1/2 231/1/2 232/1/2
f 232/1/2 231/1/2 233/1/2
f 232/6/2 233/6/2 234/6/2
f 234/6/2 233/6/2 235/6/2
f 234/4/2 235/4/2 236/4/2
f 236/4/2 235/4/2 237/4/2
f 238/5/2 239/5/2 240/5/2
f 240/5/2 239/5/2 241/5/2
f 242/12/2 243/12/2 244/12/2
f 244/12/2 243/12/2 245/12/2
f 246/8/2 247/8/2 248/8/2
f 248/8/2 247/8/2 249/8/2
f 250/10/2 251/10/2 252/10/2
f 252/10/2 251/10/2 253/10/2
f 254/9/2 255/9/2 256/9/2
f 256/9/2 255/9/2 257/9/2
f 258/5/2 259/5/2 260/5/2
f 258/5/2 260/5/2 261/5/2
f 258/5/2 261/5/2 262/5/2
f 262/5/2 261/5/2 263/5/2
f 264/2/2 265/2/2 266/2/2
f 266/2/2 265/2/2 267/2/2
f 266/12/2 267/12/2 268/12/2
f 268/12/2 267/12/2 269/12/2
f 270/5/2 271/5/2 272/5/2
f 272/5/2 271/5/2 273/5/2
f 274/5/2 275/5/2 276/5/2
f 276/5/2 275/5/2 277/5/2
f 276/9/2 277/9/2 279/9/2
f 277/9/2 278/9/2 279/9/2
f 279/9/2 278/9/2 280/9/2
f 281/5/2 282/5/2 283/5/2
f 283/5/2 282/5/2 284/5/2
f 285/5/2 286/5/2 287/5/2
f 287/5/2 286/5/2 288/5/2
f 289/2/2 290/2/2 291/2/2
f 291/2/2 290/2/2 292/2/2
f 291/12/2 292/12/2 293/12/2
f 293/12/2 292/12/2 294/12/2
f 295/3/2 296/3/2 299/3/2
f 296/10/2 297/10/2 300/10/2
f 299/3/2 296/3/2 300/3/2
f 297/3/2 298/3/2 301/3/2
f 300/10/2 297/10/2 301/10/2
f 301/3/2 298/3/2 302/3/2
f 302/10/2 303/10/2 306/10/2
f 300/10/2 301/10/2 306/10/2
f 301/10/2 302/10/2 306/10/2
f 306/10/2 303/10/2 307/10/2
f 307/10/2 303/10/2 308/10/2
f 304/5/2 305/5/2 309/5/2
f 309/5/2 305/5/2 310/5/2
f 310/12/2 311/12/2 314/12/2
f 314/12/2 311/12/2 315/12/2
f 312/5/2 313/5/2 316/5/2
f 316/5/2 313/5/2 317/5/2
f 317/9/2 318/9/2 319/9/2
f 316/9/2 317/9/2 319/9/2
f 319/9/2 318/9/2 320/9/2
f 320/9/2 318/9/2 321/9/2
f 321/9/2 318/9/2 322/9/2
f 323/8/2 324/8/2 326/8/2
f 324/8/2 325/8/2 326/8/2
f 326/8/2 325/8/2 327/8/2
f 328/10/2 329/10/2 334/10/2
f 329/3/2 330/3/2 335/3/2
f 334/10/2 329/10/2 335/10/2
f 335/3/2 330/3/2 336/3/2
f 331/3/2 332/3/2 337/3/2
f 332/10/2 333/10/2 338/10/2
f 337/3/2 332/3/2 338/3/2
f 338/10/2 333/10/2 339/10/2
f 340/5/2 341/5/2 342/5/2
f 340/5/2 342/5/2 346/5/2
f 342/3/2 343/3/2 347/3/2
f 346/5/2 342/5/2 347/5/2
f 343/5/2 344/5/2 348/5/2
f 347/3/2 343/3/2 348/3/2
f 348/5/2 344/5/2 349/5/2
f 345/5/2 346/5/2 350/5/2
f 347/10/2 348/10/2 351/10/2
f 351/10/2 348/10/2 352/10/2
f 349/5/2 344/5/2 353/5/2
f 353/5/2 344/5/2 354/5/2
f 345/5/2 350/5/2 355/5/2
f 355/5/2 350/5/2 356/5/2
f 353/8/2 354/8/2 359/8/2
f 359/8/2 354/8/2 360/8/2
f 356/10/2 357/10/2 364/10/2
f 364/10/2 357/10/2 365/10/2
f 358/5/2 359/5/2 366/5/2
f 366/5/2 359/5/2 367/5/2
f 362/6/2 363/6/2 368/6/2
f 368/6/2 363/6/2 369/6/2
f 365/8/2 366/8/2 371/8/2
f 371/8/2 366/8/2 372/8/2
f 368/5/2 369/5/2 374/5/2
f 374/5/2 369/5/2 375/5/2
f 370/8/2 371/8/2 376/8/2
f 376/8/2 371/8/2 377/8/2
f 372/8/2 373/8/2 378/8/2
f 378/8/2 373/8/2 379/8/2
f 360/9/2 361/9/2 380/9/2
f 380/9/2 361/9/2 381/9/2
f 375/8/2 376/8/2 382/8/2
f 382/8/2 376/8/2 383/8/2
f 379/9/2 380/9/2 384/9/2
f 384/9/2 380/9/2 385/9/2
f 386/12/2 387/12/2 388/12/2
f 388/12/2 387/12/2 389/12/2
f 390/12/2 391/12/2 392/12/2
f 392/12/2 391/12/2 393/12/2
f 394/5/2 395/5/2 397/5/2
f 397/5/2 395/5/2 398/5/2
f 396/8/2 397/8/2 400/8/2
f 397/8/2 398/8/2 400/8/2
f 400/8/2 398/8/2 401/8/2
f 401/8/2 398/8/2 402/8/2
f 402/8/2 398/8/2 403/8/2
f 399/8/2 400/8/2 405/8/2
f 401/8/2 402/8/2 406/8/2
f 406/8/2 402/8/2 407/8/2
f 403/8/2 404/8/2 408/8/2
f 399/8/2 405/8/2 409/8/2
f 405/8/2 406/8/2 409/8/2
f 409/8/2 406/8/2 410/8/2
f 407/8/2 408/8/2 411/8/2
f 408/8/2 404/8/2 412/8/2
f 411/8/2 408/8/2 412/8/2
f 399/8/2 409/8/2 413/8/2
f 413/8/2 409/8/2 414/8/2
f 410/8/2 411/8/2 415/8/2
f 415/8/2 411/8/2 416/8/2
f 412/8/2 404/8/2 417/8/2
f 417/8/2 404/8/2 418/8/2
f 415/8/2 416/8/2 419/8/2
f 416/8/2 417/8/2 419/8/2
f 414/8/2 415/8/2 419/8/2
f 419/8/2 417/8/2 420/8/2
f 420/8/2 417/8/2 421/8/2
f 421/8/2 417/8/2 422/8/2
f 423/12/2 424/12/2 425/12/2
f 425/12/2 424/12/2 426/12/2
f 427/8/2 428/8/2 429/8/2
f 429/8/2 428/8/2 430/8/2
f 429/7/2 430/7/2 431/7/2
f 431/7/2 430/7/2 432/7/2
f 435/7/3 434/7/3 433/7/3
f 436/7/3 434/7/3 435/7/3
f 437/6/3 436/6/3 435/6/3
f 438/6/3 436/6/3 437/6/3
f 439/6/3 437/6/3 435/6/3
f 440/5/3 438/5/3 437/5/3
f 440/6/3 437/6/3 439/6/3
f 441/5/3 438/5/3 440/5/3
f 447/9/3 443/9/3 442/9/3
f 448/9/3 443/9/3 447/9/3
f 449/9/3 443/9/3 448/9/3
f 451/3/3 445/3/3 444/3/3
f 452/3/3 445/3/3 451/3/3
f 454/5/3 447/5/3 446/5/3
f 454/5/3 448/5/3 447/5/3
f 455/5/3 448/5/3 454/5/3
f 456/9/3 450/9/3 449/9/3
f 457/9/3 450/9/3 456/9/3
f 458/10/3 452/10/3 451/10/3
f 459/10/3 452/10/3 458/10/3
f 460/5/3 454/5/3 453/5/3
f 461/5/3 454/5/3 460/5/3
f 464/3/3 459/3/3 458/3/3
f 465/3/3 459/3/3 464/3/3
f 466/5/3 463/5/3 462/5/3
f 467/5/3 463/5/3 466/5/3
f 468/8/3 457/8/3 456/8/3
f 469/10/3 465/10/3 464/10/3
f 470/10/3 465/10/3 469/10/3
f 473/3/3 470/3/3 469/3/3
f 474/3/3 470/3/3 473/3/3
f 475/5/3 472/5/3 471/5/3
f 476/5/3 472/5/3 475/5/3
f 478/8/3 457/8/3 468/8/3
f 479/10/3 474/10/3 473/10/3
f 480/10/3 474/10/3 479/10/3
f 481/5/3 477/5/3 476/5/3
f 482/5/3 477/5/3 481/5/3
f 483/5/3 477/5/3 482/5/3
f 485/8/3 457/8/3 478/8/3
f 486/8/3 457/8/3 485/8/3
f 487/8/3 484/8/3 483/8/3
f 487/8/3 485/8/3 484/8/3
f 487/8/3 483/8/3 482/8/3
f 488/8/3 485/8/3 487/8/3
f 491/5/3 490/5/3 489/5/3
f 492/5/3 490/5/3 491/5/3
f 499/9/3 494/9/3 493/9/3
f 500/9/3 494/9/3 499/9/3
f 501/9/3 496/9/3 495/9/3
f 502/9/3 496/9/3 501/9/3
f 504/5/3 498/5/3 497/5/3
f 505/5/3 498/5/3 504/5/3
f 506/5/3 498/5/3 505/5/3
f 512/10/3 504/10/3 503/10/3
f 512/10/3 505/10/3 504/10/3
f 513/10/3 505/10/3 512/10/3
f 514/11/3 507/11/3 506/11/3
f 515/4/3 508/4/3 507/4/3
f 515/11/3 507/11/3 514/11/3
f 516/5/3 509/5/3 508/5/3
f 516/4/3 508/4/3 515/4/3
f 517/5/3 509/5/3 516/5/3
f 518/9/3 511/9/3 510/9/3
f 519/9/3 511/9/3 518/9/3
f 520/3/3 513/3/3 512/3/3
f 521/10/3 514/10/3 513/10/3
f 521/3/3 513/3/3 520/3/3
f 522/11/3 515/11/3 514/11/3
f 522/10/3 514/10/3 521/10/3
f 523/12/3 516/12/3 515/12/3
f 523/11/3 515/11/3 522/11/3
f 524/12/3 516/12/3 523/12/3
f 526/10/3 521/10/3 520/10/3
f 526/10/3 522/10/3 521/10/3
f 527/10/3 522/10/3 526/10/3
f 528/10/3 522/10/3 527/10/3
f 529/12/3 524/12/3 523/12/3
f 529/10/3 522/10/3 528/10/3
f 529/12/3 523/12/3 522/12/3
f 530/12/3 524/12/3 529/12/3
f 531/5/3 525/5/3 524/5/3
f 531/12/3 524/12/3 530/12/3
f 532/3/3 527/3/3 526/3/3
f 533/10/3 528/10/3 527/10/3
f 533/3/3 527/3/3 532/3/3
f 534/10/3 528/10/3 533/10/3
f 535/12/3 530/12/3 529/12/3
f 536/4/3 531/4/3 530/4/3
f 536/12/3 530/12/3 535/12/3
f 537/5/3 525/5/3 531/5/3
f 537/4/3 531/4/3 536/4/3
f 538/5/3 525/5/3 537/5/3
f 539/8/3 519/8/3 518/8/3
f 540/8/3 519/8/3 539/8/3
f 541/5/3 534/5/3 533/5/3
f 541/5/3 535/5/3 534/5/3
f 542/5/3 535/5/3 541/5/3
f 547/8/3 544/8/3 543/8/3
f 548/8/3 544/8/3 547/8/3
f 549/8/3 546/8/3 545/8/3
f 550/8/3 546/8/3 549/8/3
f 554/5/3 552/5/3 551/5/3
f 555/5/3 552/5/3 554/5/3
f 563/5/3 558/5/3 557/5/3
f 564/5/3 558/5/3 563/5/3
f 565/5/3 554/5/3 553/5/3
f 566/5/3 554/5/3 565/5/3
f 567/5/3 556/5/3 555/5/3
f 568/5/3 556/5/3 567/5/3
f 569/1/3 560/1/3 559/1/3
f 570/1/3 560/1/3 569/1/3
f 571/1/3 560/1/3 570/1/3
f 572/6/3 561/6/3 560/6/3
f 572/1/3 560/1/3 571/1/3
f 573/4/3 562/4/3 561/4/3
f 573/6/3 561/6/3 572/6/3
f 574/4/3 562/4/3 573/4/3
f 577/5/3 567/5/3 566/5/3
f 578/5/3 567/5/3 577/5/3
f 579/12/3 571/12/3 570/12/3
f 580/12/3 571/12/3 579/12/3
f 586/9/3 576/9/3 575/9/3
f 587/8/3 577/8/3 576/8/3
f 587/9/3 576/9/3 586/9/3
f 588/8/3 577/8/3 587/8/3
f 589/10/3 581/10/3 580/10/3
f 590/10/3 581/10/3 589/10/3
f 593/9/3 583/9/3 582/9/3
f 594/9/3 583/9/3 593/9/3
f 595/9/3 585/9/3 584/9/3
f 596/9/3 585/9/3 595/9/3
f 597/9/3 587/9/3 586/9/3
f 598/9/3 587/9/3 597/9/3
f 602/5/3 592/5/3 591/5/3
f 603/5/3 592/5/3 602/5/3
f 604/2/3 600/2/3 599/2/3
f 605/12/3 601/12/3 600/12/3
f 605/2/3 600/2/3 604/2/3
f 606/12/3 601/12/3 605/12/3
f 610/2/3 608/2/3 607/2/3
f 611/12/3 609/12/3 608/12/3
f 611/2/3 608/2/3 610/2/3
f 612/12/3 609/12/3 611/12/3
f 619/10/3 614/10/3 613/10/3
f 620/10/3 614/10/3 619/10/3
f 627/12/3 616/12/3 615/12/3
f 628/12/3 616/12/3 627/12/3
f 629/12/3 618/12/3 617/12/3
f 630/12/3 618/12/3 629/12/3
f 631/8/3 622/8/3 621/8/3
f 632/8/3 622/8/3 631/8/3
f 633/8/3 624/8/3 623/8/3
f 634/8/3 624/8/3 633/8/3
f 635/8/3 626/8/3 625/8/3
f 636/8/3 626/8/3 635/8/3
f 638/12/3 629/12/3 628/12/3
f 639/12/3 629/12/3 638/12/3
f 640/8/3 636/8/3 635/8/3
f 641/7/3 637/7/3 636/7/3
f 641/8/3 636/8/3 640/8/3
f 642/7/3 637/7/3 641/7/3
f 645/9/3 644/9/3 643/9/3
f 646/9/3 644/9/3 645/9/3
f 651/5/3 648/5/3 647/5/3
f 652/5/3 648/5/3 651/5/3
f 653/8/3 650/8/3 649/8/3
f 654/8/3 650/8/3 653/8/3
f 659/9/3 656/9/3 655/9/3
f 660/9/3 656/9/3 659/9/3
f 661/9/3 658/9/3 657/9/3
f 662/9/3 658/9/3 661/9/3
f 667/8/3 664/8/3 663/8/3
f 668/8/3 664/8/3 667/8/3
f 669/8/3 666/8/3 665/8/3
f 670/8/3 666/8/3 669/8/3
f 671/9/4 672/9/4 677/9/4
f 677/9/4 672/9/4 678/9/4
f 673/9/4 674/9/4 679/9/4
f 679/9/4 674/9/4 680/9/4
f 675/5/4 676/5/4 681/5/4
f 681/5/4 676/5/4 682/5/4
f 683/5/4 684/5/4 685/5/4
f 685/5/4 684/5/4 686/5/4
f 687/8/4 688/8/4 691/8/4
f 691/8/4 688/8/4 692/8/4
f 689/8/4 690/8/4 693/8/4
f 693/8/4 690/8/4 694/8/4
f 695/9/4 696/9/4 697/9/4
f 697/9/4 696/9/4 698/9/4
f 699/5/4 700/5/4 701/5/4
f 701/5/4 700/5/4 702/5/4
f 703/8/4 704/8/4 705/8/4
f 705/8/4 704/8/4 706/8/4
f 707/5/4 708/5/4 710/5/4
f 710/5/4 708/5/4 711/5/4
f 713/5/4 714/5/4 719/5/4
f 719/5/4 714/5/4 720/5/4
f 709/5/4 710/5/4 721/5/4
f 721/5/4 710/5/4 722/5/4
f 711/5/4 712/5/4 723/5/4
f 723/5/4 712/5/4 724/5/4
f 715/1/4 716/1/4 725/1/4
f 725/1/4 716/1/4 726/1/4
f 726/1/4 716/1/4 727/1/4
f 716/6/4 717/6/4 728/6/4
f 727/1/4 716/1/4 728/1/4
f 717/4/4 718/4/4 729/4/4
f 728/6/4 717/6/4 729/6/4
f 729/4/4 718/4/4 730/4/4
f 722/5/4 723/5/4 733/5/4
f 733/5/4 723/5/4 734/5/4
f 726/12/4 727/12/4 735/12/4
f 735/12/4 727/12/4 736/12/4
f 731/9/4 732/9/4 742/9/4
f 732/8/4 733/8/4 743/8/4
f 742/9/4 732/9/4 743/9/4
f 743/8/4 733/8/4 744/8/4
f 736/10/4 737/10/4 745/10/4
f 745/10/4 737/10/4 746/10/4
f 738/9/4 739/9/4 748/9/4
f 748/9/4 739/9/4 749/9/4
f 740/9/4 741/9/4 750/9/4
f 750/9/4 741/9/4 751/9/4
f 742/9/4 743/9/4 752/9/4
f 752/9/4 743/9/4 753/9/4
f 746/12/4 747/12/4 757/12/4
f 757/12/4 747/12/4 758/12/4
f 754/2/4 755/2/4 759/2/4
f 755/12/4 756/12/4 760/12/4
f 759/2/4 755/2/4 760/2/4
f 760/12/4 756/12/4 761/12/4
f 762/2/4 763/2/4 765/2/4
f 763/12/4 764/12/4 766/12/4
f 765/2/4 763/2/4 766/2/4
f 766/12/4 764/12/4 767/12/4
f 768/12/4 769/12/4 778/12/4
f 778/12/4 769/12/4 779/12/4
f 770/12/4 771/12/4 780/12/4
f 780/12/4 771/12/4 781/12/4
f 772/8/4 773/8/4 782/8/4
f 782/8/4 773/8/4 783/8/4
f 774/8/4 775/8/4 784/8/4
f 784/8/4 775/8/4 785/8/4
f 776/8/4 777/8/4 786/8/4
f 786/8/4 777/8/4 787/8/4
f 779/12/4 780/12/4 789/12/4
f 789/12/4 780/12/4 790/12/4
f 786/8/4 787/8/4 791/8/4
f 787/7/4 788/7/4 792/7/4
f 791/8/4 787/8/4 792/8/4
f 792/7/4 788/7/4 793/7/4
f 794/5/4 795/5/4 796/5/4
f 796/5/4 795/5/4 797/5/4
f 798/9/4 799/9/4 804/9/4
f 804/9/4 799/9/4 805/9/4
f 800/9/4 801/9/4 806/9/4
f 806/9/4 801/9/4 807/9/4
f 802/5/4 803/5/4 809/5/4
f 809/5/4 803/5/4 810/5/4
f 808/10/4 809/10/4 813/10/4
f 813/10/4 809/10/4 814/10/4
f 811/9/4 812/9/4 815/9/4
f 815/9/4 812/9/4 816/9/4
f 813/3/4 814/3/4 817/3/4
f 817/3/4 814/3/4 818/3/4
f 817/10/4 818/10/4 819/10/4
f 819/10/4 818/10/4 820/10/4
f 820/10/4 818/10/4 821/10/4
f 819/3/4 820/3/4 822/3/4
f 822/3/4 820/3/4 823/3/4
f 815/8/4 816/8/4 824/8/4
f 824/8/4 816/8/4 825/8/4
f 826/5/4 827/5/4 831/5/4
f 827/8/4 828/8/4 832/8/4
f 831/5/4 827/5/4 832/5/4
f 832/8/4 828/8/4 833/8/4
f 829/8/4 830/8/4 834/8/4
f 834/8/4 830/8/4 835/8/4
f 836/9/4 837/9/4 842/9/4
f 842/9/4 837/9/4 843/9/4
f 838/3/4 839/3/4 845/3/4
f 845/3/4 839/3/4 846/3/4
f 840/5/4 841/5/4 848/5/4
f 841/8/4 842/8/4 849/8/4
f 848/5/4 841/5/4 849/5/4
f 849/8/4 842/8/4 850/8/4
f 845/10/4 846/10/4 851/10/4
f 851/10/4 846/10/4 852/10/4
f 847/5/4 848/5/4 853/5/4
f 853/5/4 848/5/4 854/5/4
f 851/3/4 852/3/4 857/3/4
f 857/3/4 852/3/4 858/3/4
f 857/10/4 858/10/4 859/10/4
f 859/10/4 858/10/4 860/10/4
f 854/5/4 855/5/4 863/5/4
f 855/9/4 856/9/4 864/9/4
f 863/5/4 855/5/4 864/5/4
f 864/9/4 856/9/4 865/9/4
f 859/3/4 860/3/4 866/3/4
f 866/3/4 860/3/4 867/3/4
f 861/10/4 862/10/4 868/10/4
f 862/5/4 863/5/4 869/5/4
f 868/10/4 862/10/4 869/10/4
f 869/5/4 863/5/4 870/5/4
f 866/10/4 867/10/4 873/10/4
f 873/10/4 867/10/4 874/10/4
f 870/5/4 871/5/4 875/5/4
f 869/5/4 870/5/4 875/5/4
f 871/8/4 872/8/4 876/8/4
f 875/5/4 871/5/4 876/5/4
f 876/8/4 872/8/4 877/8/4
f 843/9/4 844/9/4 878/9/4
f 878/9/4 844/9/4 879/9/4
f 877/8/4 878/8/4 880/8/4
f 880/8/4 878/8/4 881/8/4
f 882/9/4 883/9/4 886/9/4
f 886/9/4 883/9/4 887/9/4
f 884/5/4 885/5/4 889/5/4
f 889/5/4 885/5/4 890/5/4
f 888/5/4 889/5/4 891/5/4
f 891/5/4 889/5/4 892/5/4
f 892/5/4 893/5/4 894/5/4
f 894/5/4 893/5/4 895/5/4
f 887/9/4 883/9/4 897/9/4
f 896/9/4 897/9/4 898/9/4
f 897/9/4 883/9/4 899/9/4
f 898/9/4 897/9/4 899/9/4
f 900/9/4 901/9/4 902/9/4
f 902/9/4 901/9/4 903/9/4
f 903/9/4 901/9/4 905/9/4
f 904/9/4 905/9/4 906/9/4
f 905/9/4 901/9/4 907/9/4
f 906/9/4 905/9/4 907/9/4
f 912/2/5 909/2/5 908/2/5
f 913/2/5 909/2/5 912/2/5
f 914/2/5 911/2/5 910/2/5
f 915/2/5 911/2/5 914/2/5
f 918/1/5 917/1/5 916/1/5
f 919/1/5 917/1/5 918/1/5
f 927/3/5 921/3/5 920/3/5
f 928/10/5 922/10/5 921/10/5
f 928/3/5 921/3/5 927/3/5
f 929/10/5 926/10/5 925/10/5
f 929/3/5 925/3/5 924/3/5
f 930/10/5 926/10/5 929/10/5
f 933/10/5 928/10/5 927/10/5
f 934/10/5 922/10/5 928/10/5
f 934/10/5 928/10/5 933/10/5
f 935/3/5 923/3/5 922/3/5
f 935/10/5 922/10/5 934/10/5
f 936/10/5 924/10/5 923/10/5
f 936/3/5 929/3/5 924/3/5
f 936/3/5 930/3/5 929/3/5
f 937/3/5 930/3/5 936/3/5
f 938/3/5 930/3/5 937/3/5
f 940/12/5 932/12/5 931/12/5
f 941/12/5 932/12/5 940/12/5
f 942/3/5 934/3/5 933/3/5
f 943/3/5 934/3/5 942/3/5
f 944/3/5 923/3/5 935/3/5
f 945/10/5 936/10/5 923/10/5
f 946/10/5 938/10/5 937/10/5
f 947/12/5 939/12/5 938/12/5
f 947/10/5 938/10/5 946/10/5
f 948/12/5 939/12/5 947/12/5
f 949/10/5 943/10/5 942/10/5
f 949/10/5 944/10/5 943/10/5
f 950/10/5 944/10/5 949/10/5
f 951/3/5 947/3/5 946/3/5
f 951/3/5 946/3/5 945/3/5
f 952/3/5 947/3/5 951/3/5
f 953/3/5 950/3/5 949/3/5
f 954/10/5 944/10/5 950/10/5
f 954/3/5 950/3/5 953/3/5
f 955/3/5 923/3/5 944/3/5
f 955/10/5 944/10/5 954/10/5
f 956/10/5 945/10/5 923/10/5
f 956/3/5 923/3/5 955/3/5
f 957/3/5 951/3/5 945/3/5
f 957/10/5 945/10/5 956/10/5
f 958/10/5 952/10/5 951/10/5
f 958/3/5 951/3/5 957/3/5
f 959/10/5 952/10/5 958/10/5
f 964/10/5 961/10/5 960/10/5
f 965/10/5 961/10/5 964/10/5
f 966/12/5 963/12/5 962/12/5
f 967/12/5 963/12/5 966/12/5
f 972/5/5 969/5/5 968/5/5
f 973/5/5 969/5/5 972/5/5
f 974/5/5 971/5/5 970/5/5
f 975/5/5 971/5/5 974/5/5
f 977/12/5 973/12/5 972/12/5
f 978/12/5 973/12/5 977/12/5
f 979/12/5 976/12/5 975/12/5
f 980/12/5 976/12/5 979/12/5
f 983/10/5 982/10/5 981/10/5
f 984/10/5 982/10/5 983/10/5
f 989/5/5 986/5/5 985/5/5
f 990/5/5 986/5/5 989/5/5
f 991/5/5 988/5/5 987/5/5
f 992/5/5 988/5/5 991/5/5
f 997/3/5 994/3/5 993/3/5
f 998/3/5 994/3/5 997/3/5
f 999/5/5 996/5/5 995/5/5
f 1000/5/5 996/5/5 999/5/5
f 1004/5/5 1003/5/5 1002/5/5
f 1004/5/5 1002/5/5 1001/5/5
f 1004/5/5 1001/5/5 1000/5/5
f 1005/5/5 1003/5/5 1004/5/5
f 1006/5/5 1003/5/5 1005/5/5
f 1007/5/5 998/5/5 997/5/5
f 1008/5/5 998/5/5 1007/5/5
f 1009/5/5 1006/5/5 1005/5/5
f 1010/5/5 1006/5/5 1009/5/5
f 1015/5/5 1012/5/5 1011/5/5
f 1016/5/5 1012/5/5 1015/5/5
f 1017/5/5 1014/5/5 1013/5/5
f 1018/5/5 1014/5/5 1017/5/5
f 1023/5/5 1020/5/5 1019/5/5
f 1024/5/5 1020/5/5 1023/5/5
f 1025/5/5 1022/5/5 1021/5/5
f 1026/5/5 1022/5/5 1025/5/5
f 1030/5/5 1027/5/5 1026/5/5
f 1031/5/5 1027/5/5 1030/5/5
f 1032/5/5 1029/5/5 1028/5/5
f 1033/5/5 1029/5/5 1032/5/5
f 1040/9/5 1035/9/5 1034/9/5
f 1040/11/5 1036/11/5 1035/11/5
f 1041/11/5 1036/11/5 1040/11/5
f 1042/5/5 1038/5/5 1037/5/5
f 1043/8/5 1039/8/5 1038/8/5
f 1043/5/5 1038/5/5 1042/5/5
f 1044/8/5 1039/8/5 1043/8/5
f 1045/8/5 1039/8/5 1044/8/5
f 1046/9/5 1040/9/5 1034/9/5
f 1047/9/5 1040/9/5 1046/9/5
f 1052/9/5 1049/9/5 1048/9/5
f 1053/9/5 1049/9/5 1052/9/5
f 1054/9/5 1051/9/5 1050/9/5
f 1055/9/5 1051/9/5 1054/9/5
f 1062/9/5 1057/9/5 1056/9/5
f 1063/9/5 1057/9/5 1062/9/5
f 1064/5/5 1059/5/5 1058/5/5
f 1065/5/5 1059/5/5 1064/5/5
f 1066/8/5 1061/8/5 1060/8/5
f 1067/8/5 1061/8/5 1066/8/5
f 1072/9/5 1069/9/5 1068/9/5
f 1073/9/5 1069/9/5 1072/9/5
f 1078/8/5 1071/8/5 1070/8/5
f 1079/8/5 1071/8/5 1078/8/5
f 1080/9/5 1074/9/5 1073/9/5
f 1081/9/5 1074/9/5 1080/9/5
f 1082/9/5 1078/9/5 1077/9/5
f 1083/9/5 1078/9/5 1082/9/5
f 1084/9/5 1076/9/5 1075/9/5
f 1085/9/5 1076/9/5 1084/9/5
f 1089/7/5 1087/7/5 1086/7/5
f 1090/7/5 1087/7/5 1089/7/5
f 1091/7/5 1087/7/5 1090/7/5
f 1092/6/5 1088/6/5 1087/6/5
f 1092/7/5 1087/7/5 1091/7/5
f 1093/6/5 1088/6/5 1092/6/5
f 1094/6/5 1088/6/5 1093/6/5
f 1097/8/5 1091/8/5 1090/8/5
f 1098/8/5 1091/8/5 1097/8/5
f 1099/8/5 1093/8/5 1092/8/5
f 1100/8/5 1093/8/5 1099/8/5
f 1103/9/5 1096/9/5 1095/9/5
f 1104/9/5 1096/9/5 1103/9/5
f 1105/8/5 1102/8/5 1101/8/5
f 1106/8/5 1102/8/5 1105/8/5
f 1111/9/5 1108/9/5 1107/9/5
f 1112/9/5 1108/9/5 1111/9/5
f 1113/8/5 1110/8/5 1109/8/5
f 1114/8/5 1110/8/5 1113/8/5
f 1119/9/5 1116/9/5 1115/9/5
f 1120/9/5 1116/9/5 1119/9/5
f 1121/8/5 1118/8/5 1117/8/5
f 1122/8/5 1118/8/5 1121/8/5
f 1129/9/5 1124/9/5 1123/9/5
f 1130/9/5 1124/9/5 1129/9/5
f 1131/8/5 1126/8/5 1125/8/5
f 1132/8/5 1126/8/5 1131/8/5
f 1133/5/5 1128/5/5 1127/5/5
f 1134/5/5 1128/5/5 1133/5/5
f 1139/9/5 1136/9/5 1135/9/5
f 1140/9/5 1136/9/5 1139/9/5
f 1141/8/5 1138/8/5 1137/8/5
f 1142/8/5 1138/8/5 1141/8/5
f 1147/9/5 1144/9/5 1143/9/5
f 1148/9/5 1144/9/5 1147/9/5
f 1149/8/5 1146/8/5 1145/8/5
f 1150/8/5 1146/8/5 1149/8/5
f 1153/5/5 1152/5/5 1151/5/5
f 1154/5/5 1152/5/5 1153/5/5
f 1158/5/5 1156/5/5 1155/5/5
f 1159/5/5 1156/5/5 1158/5/5
f 1161/5/5 1158/5/5 1157/5/5
f 1162/5/5 1158/5/5 1161/5/5
f 1163/5/5 1160/5/5 1159/5/5
f 1164/5/5 1160/5/5 1163/5/5
f 1165/5/5 1163/5/5 1162/5/5
f 1166/5/5 1163/5/5 1165/5/5
f 1167/3/6 1168/3/6 1174/3/6
f 1168/10/6 1169/10/6 1175/10/6
f 1174/3/6 1168/3/6 1175/3/6
f 1169/3/6 1170/3/6 1176/3/6
f 1175/10/6 1169/10/6 1176/10/6
f 1170/10/6 1171/10/6 1177/10/6
f 1176/3/6 1170/3/6 1177/3/6
f 1171/3/6 1172/3/6 1178/3/6
f 1177/10/6 1171/10/6 1178/10/6
f 1172/10/6 1173/10/6 1179/10/6
f 1178/3/6 1172/3/6 1179/3/6
f 1179/10/6 1173/10/6 1180/10/6
f 1174/10/6 1175/10/6 1183/10/6
f 1183/10/6 1175/10/6 1184/10/6
f 1179/3/6 1180/3/6 1185/3/6
f 1185/3/6 1180/3/6 1186/3/6
f 1181/12/6 1182/12/6 1188/12/6
f 1188/12/6 1182/12/6 1189/12/6
f 1183/3/6 1184/3/6 1190/3/6
f 1190/3/6 1184/3/6 1191/3/6
f 1185/10/6 1186/10/6 1192/10/6
f 1186/12/6 1187/12/6 1193/12/6
f 1192/10/6 1186/10/6 1193/10/6
f 1193/12/6 1187/12/6 1194/12/6
f 1190/10/6 1191/10/6 1195/10/6
f 1195/10/6 1191/10/6 1196/10/6
f 1192/3/6 1193/3/6 1200/3/6
f 1200/3/6 1193/3/6 1201/3/6
f 1195/3/6 1196/3/6 1202/3/6
f 1196/10/6 1197/10/6 1203/10/6
f 1202/3/6 1196/3/6 1203/3/6
f 1197/3/6 1198/3/6 1204/3/6
f 1203/10/6 1197/10/6 1204/10/6
f 1198/10/6 1199/10/6 1205/10/6
f 1204/3/6 1198/3/6 1205/3/6
f 1199/3/6 1200/3/6 1206/3/6
f 1205/10/6 1199/10/6 1206/10/6
f 1200/10/6 1201/10/6 1207/10/6
f 1206/3/6 1200/3/6 1207/3/6
f 1207/10/6 1201/10/6 1208/10/6
f 1209/10/6 1210/10/6 1213/10/6
f 1213/10/6 1210/10/6 1214/10/6
f 1211/12/6 1212/12/6 1215/12/6
f 1215/12/6 1212/12/6 1216/12/6
f 1217/12/6 1218/12/6 1219/12/6
f 1219/12/6 1218/12/6 1220/12/6
f 1221/5/6 1222/5/6 1226/5/6
f 1226/5/6 1222/5/6 1227/5/6
f 1223/5/6 1224/5/6 1228/5/6
f 1228/5/6 1224/5/6 1229/5/6
f 1225/5/6 1226/5/6 1231/5/6
f 1231/5/6 1226/5/6 1232/5/6
f 1229/5/6 1230/5/6 1233/5/6
f 1233/5/6 1230/5/6 1234/5/6
f 1235/5/6 1236/5/6 1237/5/6
f 1237/5/6 1236/5/6 1238/5/6
f 1239/9/6 1240/9/6 1243/9/6
f 1243/9/6 1240/9/6 1244/9/6
f 1241/8/6 1242/8/6 1245/8/6
f 1245/8/6 1242/8/6 1246/8/6
f 1247/9/6 1248/9/6 1251/9/6
f 1251/9/6 1248/9/6 1252/9/6
f 1249/8/6 1250/8/6 1253/8/6
f 1253/8/6 1250/8/6 1254/8/6
f 1255/9/6 1256/9/6 1259/9/6
f 1259/9/6 1256/9/6 1260/9/6
f 1257/8/6 1258/8/6 1261/8/6
f 1261/8/6 1258/8/6 1262/8/6
f 1263/9/6 1264/9/6 1269/9/6
f 1269/9/6 1264/9/6 1270/9/6
f 1265/8/6 1266/8/6 1271/8/6
f 1271/8/6 1266/8/6 1272/8/6
f 1267/4/6 1268/4/6 1273/4/6
f 1273/4/6 1268/4/6 1274/4/6
f 1275/9/6 1276/9/6 1279/9/6
f 1279/9/6 1276/9/6 1280/9/6
f 1277/8/6 1278/8/6 1281/8/6
f 1281/8/6 1278/8/6 1282/8/6
f 1283/9/6 1284/9/6 1285/9/6
f 1285/9/6 1284/9/6 1286/9/6
f 1287/7/6 1288/7/6 1292/7/6
f 1292/7/6 1288/7/6 1293/7/6
f 1288/6/6 1289/6/6 1294/6/6
f 1293/7/6 1288/7/6 1294/7/6
f 1289/5/6 1290/5/6 1295/5/6
f 1294/6/6 1289/6/6 1295/6/6
f 1295/5/6 1290/5/6 1296/5/6
f 1291/9/6 1292/9/6 1298/9/6
f 1298/9/6 1292/9/6 1299/9/6
f 1296/8/6 1297/8/6 1300/8/6
f 1300/8/6 1297/8/6 1301/8/6
f 1302/9/6 1303/9/6 1306/9/6
f 1306/9/6 1303/9/6 1307/9/6
f 1304/8/6 1305/8/6 1308/8/6
f 1308/8/6 1305/8/6 1309/8/6
f 1307/9/6 1308/9/6 1310/9/6
f 1310/9/6 1308/9/6 1311/9/6
f 1312/9/6 1313/9/6 1316/9/6
f 1313/8/6 1314/8/6 1317/8/6
f 1316/9/6 1313/9/6 1317/9/6
f 1317/8/6 1314/8/6 1318/8/6
f 1318/8/6 1314/8/6 1319/8/6
f 1319/8/6 1314/8/6 1320/8/6
f 1315/9/6 1316/9/6 1324/9/6
f 1316/9/6 1317/9/6 1324/9/6
f 1324/9/6 1317/9/6 1325/9/6
f 1319/8/6 1320/8/6 1326/8/6
f 1320/8/6 1321/8/6 1326/8/6
f 1326/8/6 1321/8/6 1327/8/6
f 1322/5/6 1323/5/6 1328/5/6
f 1328/5/6 1323/5/6 1329/5/6
f 1325/9/6 1317/9/6 1331/9/6
f 1319/8/6 1326/8/6 1332/8/6
f 1332/8/6 1326/8/6 1333/8/6
f 1330/9/6 1331/9/6 1335/9/6
f 1331/9/6 1317/9/6 1336/9/6
f 1335/9/6 1331/9/6 1336/9/6
f 1336/9/6 1317/9/6 1337/9/6
f 1332/9/6 1333/9/6 1339/9/6
f 1333/8/6 1334/8/6 1340/8/6
f 1339/9/6 1333/9/6 1340/9/6
f 1340/8/6 1334/8/6 1341/8/6
f 1338/9/6 1339/9/6 1342/9/6
f 1337/9/6 1338/9/6 1342/9/6
f 1339/9/6 1340/9/6 1342/9/6
f 1336/9/6 1337/9/6 1342/9/6
f 1342/9/6 1340/9/6 1343/9/6
f 1347/9/6 1348/9/6 1351/9/6
f 1351/9/6 1348/9/6 1352/9/6
f 1349/8/6 1350/8/6 1353/8/6
f 1353/8/6 1350/8/6 1354/8/6
f 1344/9/6 1345/9/6 1355/9/6
f 1345/8/6 1346/8/6 1356/8/6
f 1355/9/6 1345/9/6 1356/9/6
f 1356/8/6 1346/8/6 1357/8/6
f 1358/8/6 1359/8/6 1362/8/6
f 1362/8/6 1359/8/6 1363/8/6
f 1360/7/6 1361/7/6 1364/7/6
f 1364/7/6 1361/7/6 1365/7/6
f 1366/5/6 1367/5/6 1369/5/6
f 1369/5/6 1367/5/6 1370/5/6
f 1368/5/6 1369/5/6 1372/5/6
f 1372/5/6 1369/5/6 1373/5/6
f 1370/5/6 1371/5/6 1374/5/6
f 1374/5/6 1371/5/6 1375/5/6
f 1373/5/6 1374/5/6 1376/5/6
f 1376/5/6 1374/5/6 1377/5/6
f 1378/5/6 1379/5/6 1380/5/6
f 1380/5/6 1379/5/6 1381/5/6
